<svg id="Layer_2" viewBox="0 0 520 520" xmlns="http://www.w3.org/2000/svg" data-name="Layer 2"><g id="Lowercase_Alphabet" data-name="Lowercase Alphabet"><g><g><path d="m516.94 41.43c-.16-22.89-18.51-41.43-40.99-41.43h-417.07c-8.31 0-16.03 2.54-22.44 6.89l-18.47 12.54c6.41-4.35 14.13-6.89 22.44-6.89h417.06c22.48 0 40.83 18.54 40.99 41.43l3.06 424.6c.1 14.43-7.04 27.13-17.97 34.54l18.47-12.54c10.93-7.42 18.07-20.12 17.97-34.54l-3.06-424.6z" fill="#ce1b1b"/><path d="m457.48 12.54c22.48 0 40.83 18.54 40.99 41.43l3.06 424.6c.16 22.89-17.92 41.43-40.4 41.43h-417.06c-22.48 0-40.85-18.54-41.01-41.43l-3.06-424.6c-.16-22.89 17.93-41.43 40.41-41.43h417.06z" fill="#f92626"/><path d="m440.18 495.49h-382.97c-17.93 0-32.51-14.8-32.51-33v-388.69c0-18.2 14.58-33 32.51-33h382.97c17.93 0 32.51 14.8 32.51 33v388.69c0 18.19-14.58 33-32.51 33zm-382.97-443.9c-12.07 0-21.88 9.96-21.88 22.21v388.69c0 12.25 9.82 22.21 21.88 22.21h382.97c12.07 0 21.89-9.96 21.89-22.21v-388.69c0-12.25-9.82-22.21-21.89-22.21z" fill="#ce1b1b"/></g><path d="m222.11 221.94c10.29-5.41 22.04-8.12 35.26-8.12 15.38 0 29.3 3.79 41.76 11.38s22.31 18.36 29.57 32.34 10.89 30.17 10.89 48.59-3.63 34.72-10.89 48.91-17.12 25.19-29.57 32.99c-12.46 7.8-26.38 11.7-41.76 11.7-13.44 0-25.19-2.66-35.26-7.96-10.08-5.31-18.15-12.19-24.21-20.64v25.67h-45.5v-240.5h45.5v86.77c5.85-8.66 13.92-15.71 24.21-21.12zm64.35 56.06c-4.44-7.91-10.29-13.92-17.55-18.04-7.26-4.11-15.11-6.17-23.56-6.17s-15.98 2.11-23.24 6.34-13.11 10.35-17.55 18.36c-4.44 8.02-6.66 17.44-6.66 28.27s2.22 20.26 6.66 28.27c4.44 8.02 10.29 14.14 17.55 18.36 7.26 4.23 15 6.34 23.24 6.34s16.3-2.16 23.56-6.5c7.26-4.33 13.11-10.51 17.55-18.53 4.44-8.01 6.66-17.55 6.66-28.6s-2.22-20.2-6.66-28.11z" fill="#fff"/></g></g></svg>