<svg id="Layer_2" viewBox="0 0 520 520" xmlns="http://www.w3.org/2000/svg" data-name="Layer 2"><g id="Lowercase_Alphabet" data-name="Lowercase Alphabet"><g><g><path d="m516.94 41.43c-.16-22.89-18.51-41.43-40.99-41.43h-417.07c-8.31 0-16.03 2.54-22.44 6.89l-18.47 12.54c6.41-4.35 14.13-6.89 22.44-6.89h417.06c22.48 0 40.83 18.54 40.99 41.43l3.06 424.6c.1 14.43-7.04 27.13-17.97 34.54l18.47-12.54c10.93-7.42 18.07-20.12 17.97-34.54l-3.06-424.6z" fill="#eab815"/><path d="m457.48 12.54c22.48 0 40.83 18.54 40.99 41.43l3.06 424.6c.16 22.89-17.92 41.43-40.4 41.43h-417.06c-22.48 0-40.85-18.54-41.01-41.43l-3.06-424.6c-.16-22.89 17.93-41.43 40.41-41.43h417.06z" fill="#ffc610"/><path d="m440.18 495.49h-382.97c-17.93 0-32.51-14.8-32.51-33v-388.69c0-18.2 14.58-33 32.51-33h382.97c17.93 0 32.51 14.8 32.51 33v388.69c0 18.19-14.58 33-32.51 33zm-382.97-443.9c-12.07 0-21.88 9.96-21.88 22.21v388.69c0 12.25 9.82 22.21 21.88 22.21h382.97c12.07 0 21.89-9.96 21.89-22.21v-388.69c0-12.25-9.82-22.21-21.89-22.21z" fill="#eab815"/></g><path d="m170.44 229.09c7.58-13.97 18.09-24.81 31.52-32.5s28.81-11.54 46.15-11.54c22.31 0 40.79 5.58 55.41 16.74s24.43 26.81 29.41 46.96h-49.08c-2.6-7.8-6.99-13.92-13.16-18.36s-13.81-6.66-22.91-6.66c-13 0-23.29 4.71-30.88 14.14-7.59 9.42-11.38 22.81-11.38 40.14s3.79 30.39 11.38 39.81c7.58 9.42 17.88 14.14 30.88 14.14 18.41 0 30.44-8.23 36.07-24.7h49.08c-4.99 19.5-14.84 34.99-29.58 46.47-14.74 11.49-33.15 17.22-55.25 17.22-17.34 0-32.72-3.84-46.15-11.54-13.44-7.69-23.94-18.53-31.52-32.5-7.59-13.97-11.38-30.28-11.38-48.91s3.79-34.94 11.38-48.91z" fill="#fff"/></g></g></svg>