<svg id="Layer_2" viewBox="0 0 520 520" xmlns="http://www.w3.org/2000/svg" data-name="Layer 2"><g id="Lowercase_Alphabet" data-name="Lowercase Alphabet"><g><g><path d="m516.94 41.43c-.16-22.89-18.51-41.43-40.99-41.43h-417.07c-8.31 0-16.03 2.54-22.44 6.89l-18.47 12.54c6.41-4.35 14.13-6.89 22.44-6.89h417.06c22.48 0 40.83 18.54 40.99 41.43l3.06 424.6c.1 14.43-7.04 27.13-17.97 34.54l18.47-12.54c10.93-7.42 18.07-20.12 17.97-34.54l-3.06-424.6z" fill="#25aa0e"/><path d="m457.48 12.54c22.48 0 40.83 18.54 40.99 41.43l3.06 424.6c.16 22.89-17.92 41.43-40.4 41.43h-417.06c-22.48 0-40.85-18.54-41.01-41.43l-3.06-424.6c-.16-22.89 17.93-41.43 40.41-41.43h417.06z" fill="#0dcc47"/><path d="m440.18 495.49h-382.97c-17.93 0-32.51-14.8-32.51-33v-388.69c0-18.2 14.58-33 32.51-33h382.97c17.93 0 32.51 14.8 32.51 33v388.69c0 18.19-14.58 33-32.51 33zm-382.97-443.9c-12.07 0-21.88 9.96-21.88 22.21v388.69c0 12.25 9.82 22.21 21.88 22.21h382.97c12.07 0 21.89-9.96 21.89-22.21v-388.69c0-12.25-9.82-22.21-21.89-22.21z" fill="#25aa0e"/></g><path d="m163.12 257.69c7.26-14.08 17.17-24.91 29.74-32.5 12.56-7.58 26.54-11.38 41.92-11.38 11.7 0 22.86 2.55 33.48 7.64 10.61 5.09 19.06 11.86 25.35 20.31v-85.48h46.15v240.5h-46.15v-26.65c-5.64 8.89-13.54 16.04-23.73 21.45s-21.99 8.12-35.42 8.12c-15.17 0-29.04-3.9-41.6-11.7-12.57-7.8-22.48-18.79-29.74-32.99-7.26-14.19-10.89-30.49-10.89-48.91s3.63-34.34 10.89-48.43zm124.32 20.64c-4.34-7.91-10.19-13.98-17.55-18.2-7.37-4.23-15.27-6.34-23.73-6.34s-16.25 2.06-23.4 6.17c-7.15 4.12-12.95 10.13-17.39 18.04s-6.66 17.28-6.66 28.11 2.22 20.31 6.66 28.44c4.44 8.12 10.29 14.36 17.55 18.69 7.26 4.34 15 6.5 23.24 6.5s16.36-2.11 23.73-6.34c7.36-4.22 13.21-10.29 17.55-18.2 4.33-7.91 6.5-17.39 6.5-28.44s-2.17-20.53-6.5-28.44z" fill="#fff"/></g></g></svg>