<svg id="Layer_2" viewBox="0 0 520 520" xmlns="http://www.w3.org/2000/svg" data-name="Layer 2"><g id="Lowercase_Alphabet" data-name="Lowercase Alphabet"><g><g><path d="m516.94 41.43c-.16-22.89-18.51-41.43-40.99-41.43h-417.07c-8.31 0-16.03 2.54-22.44 6.89l-18.47 12.54c6.41-4.35 14.13-6.89 22.44-6.89h417.06c22.48 0 40.83 18.54 40.99 41.43l3.06 424.6c.1 14.43-7.04 27.13-17.97 34.54l18.47-12.54c10.93-7.42 18.07-20.12 17.97-34.54l-3.06-424.6z" fill="#c90d70"/><path d="m457.48 12.54c22.48 0 40.83 18.54 40.99 41.43l3.06 424.6c.16 22.89-17.92 41.43-40.4 41.43h-417.06c-22.48 0-40.85-18.54-41.01-41.43l-3.06-424.6c-.16-22.89 17.93-41.43 40.41-41.43h417.06z" fill="#f7289f"/><path d="m440.18 495.49h-382.97c-17.93 0-32.51-14.8-32.51-33v-388.69c0-18.2 14.58-33 32.51-33h382.97c17.93 0 32.51 14.8 32.51 33v388.69c0 18.19-14.58 33-32.51 33zm-382.97-443.9c-12.07 0-21.88 9.96-21.88 22.21v388.69c0 12.25 9.82 22.21 21.88 22.21h382.97c12.07 0 21.89-9.96 21.89-22.21v-388.69c0-12.25-9.82-22.21-21.89-22.21z" fill="#c90d70"/></g><path d="m334.24 291.65h-131.62c1.08 13 5.63 23.19 13.65 30.55 8.01 7.37 17.88 11.05 29.58 11.05 16.9 0 28.92-7.26 36.07-21.77h49.08c-5.2 17.34-15.17 31.58-29.9 42.74-14.74 11.16-32.83 16.74-54.28 16.74-17.34 0-32.88-3.84-46.64-11.54-13.76-7.69-24.49-18.58-32.17-32.66-7.69-14.08-11.54-30.33-11.54-48.75s3.79-34.99 11.38-49.08c7.58-14.08 18.2-24.91 31.85-32.5 13.65-7.58 29.36-11.38 47.12-11.38s32.44 3.69 45.99 11.05c13.54 7.37 24.05 17.82 31.53 31.36 7.47 13.54 11.21 29.09 11.21 46.64 0 6.5-.44 12.35-1.3 17.55zm-45.83-30.55c-.22-11.7-4.44-21.07-12.67-28.11-8.24-7.04-18.31-10.56-30.22-10.56-11.27 0-20.75 3.41-28.44 10.24-7.69 6.82-12.41 16.31-14.14 28.44h85.47z" fill="#fff"/></g></g></svg>