<svg id="Layer_2" viewBox="0 0 520 520" xmlns="http://www.w3.org/2000/svg" data-name="Layer 2"><g id="Lowercase_Alphabet" data-name="Lowercase Alphabet"><g><g><path d="m516.94 41.43c-.16-22.89-18.51-41.43-40.99-41.43h-417.07c-8.31 0-16.03 2.54-22.44 6.89l-18.47 12.54c6.41-4.35 14.13-6.89 22.44-6.89h417.06c22.48 0 40.83 18.54 40.99 41.43l3.06 424.6c.1 14.43-7.04 27.13-17.97 34.54l18.47-12.54c10.93-7.42 18.07-20.12 17.97-34.54l-3.06-424.6z" fill="#651dcc"/><path d="m457.48 12.54c22.48 0 40.83 18.54 40.99 41.43l3.06 424.6c.16 22.89-17.92 41.43-40.4 41.43h-417.06c-22.48 0-40.85-18.54-41.01-41.43l-3.06-424.6c-.16-22.89 17.93-41.43 40.41-41.43h417.06z" fill="#288bf7"/><path d="m440.18 495.49h-382.97c-17.93 0-32.51-14.8-32.51-33v-388.69c0-18.2 14.58-33 32.51-33h382.97c17.93 0 32.51 14.8 32.51 33v388.69c0 18.19-14.58 33-32.51 33zm-382.97-443.9c-12.07 0-21.88 9.96-21.88 22.21v388.69c0 12.25 9.82 22.21 21.88 22.21h382.97c12.07 0 21.89-9.96 21.89-22.21v-388.69c0-12.25-9.82-22.21-21.89-22.21z" fill="#651dcc"/></g><path d="m282.07 392.08c0 19.93-4.93 34.29-14.79 43.06s-24 13.16-42.41 13.16h-20.15v-38.67h13c6.93 0 11.81-1.36 14.62-4.06 2.81-2.71 4.22-7.1 4.22-13.16v-209.95h45.5v209.62zm-42.73-238.72c-5.31-5.09-7.96-11.43-7.96-19.01s2.65-13.92 7.96-19.01 12.08-7.64 20.31-7.64 14.62 2.55 19.83 7.64c5.2 5.09 7.8 11.43 7.8 19.01s-2.6 13.92-7.8 19.01-11.81 7.64-19.83 7.64-15.01-2.54-20.31-7.64z" fill="#fff"/></g></g></svg>