<svg id="Layer_2" viewBox="0 0 520 520" xmlns="http://www.w3.org/2000/svg" data-name="Layer 2"><g id="Lowercase_Alphabet" data-name="Lowercase Alphabet"><g><g><path d="m516.94 41.43c-.16-22.89-18.51-41.43-40.99-41.43h-417.07c-8.31 0-16.03 2.54-22.44 6.89l-18.47 12.54c6.41-4.35 14.13-6.89 22.44-6.89h417.06c22.48 0 40.83 18.54 40.99 41.43l3.06 424.6c.1 14.43-7.04 27.13-17.97 34.54l18.47-12.54c10.93-7.42 18.07-20.12 17.97-34.54l-3.06-424.6z" fill="#c90d70"/><path d="m457.48 12.54c22.48 0 40.83 18.54 40.99 41.43l3.06 424.6c.16 22.89-17.92 41.43-40.4 41.43h-417.06c-22.48 0-40.85-18.54-41.01-41.43l-3.06-424.6c-.16-22.89 17.93-41.43 40.41-41.43h417.06z" fill="#f7289f"/><path d="m440.18 495.49h-382.97c-17.93 0-32.51-14.8-32.51-33v-388.69c0-18.2 14.58-33 32.51-33h382.97c17.93 0 32.51 14.8 32.51 33v388.69c0 18.19-14.58 33-32.51 33zm-382.97-443.9c-12.07 0-21.88 9.96-21.88 22.21v388.69c0 12.25 9.82 22.21 21.88 22.21h382.97c12.07 0 21.89-9.96 21.89-22.21v-388.69c0-12.25-9.82-22.21-21.89-22.21z" fill="#c90d70"/></g><path d="m374.38 206.99c13.54 13.54 20.31 32.45 20.31 56.71v105.62h-45.5v-99.45c0-14.08-3.57-24.86-10.72-32.34s-16.9-11.21-29.25-11.21-22.16 3.74-29.41 11.21c-7.26 7.48-10.89 18.26-10.89 32.34v99.45h-45.5v-99.45c0-14.08-3.57-24.86-10.73-32.34-7.15-7.48-16.9-11.21-29.25-11.21s-22.48 3.74-29.74 11.21c-7.26 7.48-10.89 18.26-10.89 32.34v99.45h-45.5v-180.05h45.5v21.77c5.85-7.58 13.38-13.54 22.59-17.88 9.21-4.33 19.34-6.5 30.39-6.5 14.08 0 26.65 2.98 37.7 8.94s19.61 14.46 25.67 25.51c5.85-10.4 14.35-18.74 25.51-25.02s23.24-9.42 36.24-9.42c22.1 0 39.92 6.77 53.46 20.31z" fill="#fff"/></g></g></svg>