<svg id="Layer_2" viewBox="0 0 520 520" xmlns="http://www.w3.org/2000/svg" data-name="Layer 2"><g id="Lowercase_Alphabet" data-name="Lowercase Alphabet"><g><g><path d="m516.94 41.43c-.16-22.89-18.51-41.43-40.99-41.43h-417.07c-8.31 0-16.03 2.54-22.44 6.89l-18.47 12.54c6.41-4.35 14.13-6.89 22.44-6.89h417.06c22.48 0 40.83 18.54 40.99 41.43l3.06 424.6c.1 14.43-7.04 27.13-17.97 34.54l18.47-12.54c10.93-7.42 18.07-20.12 17.97-34.54l-3.06-424.6z" fill="#ce1b1b"/><path d="m457.48 12.54c22.48 0 40.83 18.54 40.99 41.43l3.06 424.6c.16 22.89-17.92 41.43-40.4 41.43h-417.06c-22.48 0-40.85-18.54-41.01-41.43l-3.06-424.6c-.16-22.89 17.93-41.43 40.41-41.43h417.06z" fill="#f92626"/><path d="m440.18 495.49h-382.97c-17.93 0-32.51-14.8-32.51-33v-388.69c0-18.2 14.58-33 32.51-33h382.97c17.93 0 32.51 14.8 32.51 33v388.69c0 18.19-14.58 33-32.51 33zm-382.97-443.9c-12.07 0-21.88 9.96-21.88 22.21v388.69c0 12.25 9.82 22.21 21.88 22.21h382.97c12.07 0 21.89-9.96 21.89-22.21v-388.69c0-12.25-9.82-22.21-21.89-22.21z" fill="#ce1b1b"/></g><path d="m197.9 359.41c-13.87-7.69-24.76-18.58-32.66-32.66-7.91-14.08-11.86-30.33-11.86-48.75s4.06-34.66 12.19-48.75c8.12-14.08 19.23-24.97 33.31-32.66s29.79-11.54 47.12-11.54 33.04 3.85 47.12 11.54 25.19 18.58 33.31 32.66c8.12 14.09 12.19 30.34 12.19 48.75s-4.17 34.67-12.51 48.75c-8.34 14.09-19.61 24.97-33.8 32.66s-30.06 11.54-47.61 11.54-32.94-3.84-46.8-11.54zm70.04-34.12c7.26-4.01 13.05-10.02 17.39-18.04 4.33-8.01 6.5-17.76 6.5-29.25 0-17.11-4.5-30.28-13.49-39.49s-19.99-13.81-32.99-13.81-23.89 4.61-32.66 13.81c-8.77 9.21-13.16 22.38-13.16 39.49s4.28 30.28 12.84 39.49 19.34 13.81 32.34 13.81c8.23 0 15.98-2 23.24-6.01z" fill="#fff"/></g></g></svg>