<svg id="Layer_2" viewBox="0 0 520 520" xmlns="http://www.w3.org/2000/svg" data-name="Layer 2"><g id="Lowercase_Alphabet" data-name="Lowercase Alphabet"><g><g><path d="m516.94 41.43c-.16-22.89-18.51-41.43-40.99-41.43h-417.07c-8.31 0-16.03 2.54-22.44 6.89l-18.47 12.54c6.41-4.35 14.13-6.89 22.44-6.89h417.06c22.48 0 40.83 18.54 40.99 41.43l3.06 424.6c.1 14.43-7.04 27.13-17.97 34.54l18.47-12.54c10.93-7.42 18.07-20.12 17.97-34.54l-3.06-424.6z" fill="#c90d70"/><path d="m457.48 12.54c22.48 0 40.83 18.54 40.99 41.43l3.06 424.6c.16 22.89-17.92 41.43-40.4 41.43h-417.06c-22.48 0-40.85-18.54-41.01-41.43l-3.06-424.6c-.16-22.89 17.93-41.43 40.41-41.43h417.06z" fill="#f7289f"/><path d="m440.18 495.49h-382.97c-17.93 0-32.51-14.8-32.51-33v-388.69c0-18.2 14.58-33 32.51-33h382.97c17.93 0 32.51 14.8 32.51 33v388.69c0 18.19-14.58 33-32.51 33zm-382.97-443.9c-12.07 0-21.88 9.96-21.88 22.21v388.69c0 12.25 9.82 22.21 21.88 22.21h382.97c12.07 0 21.89-9.96 21.89-22.21v-388.69c0-12.25-9.82-22.21-21.89-22.21z" fill="#c90d70"/></g><path d="m163.45 188.14c7.47-13.98 17.6-24.86 30.39-32.66 12.78-7.8 26.86-11.7 42.25-11.7 12.78 0 24.1 2.44 33.96 7.31 9.86 4.88 17.82 11.11 23.89 18.69v-23.4h45.83v265.85h-45.83v-110.5c-6.07 7.8-14.19 14.3-24.38 19.5s-21.67 7.8-34.45 7.8c-15.17 0-29.09-3.95-41.76-11.86s-22.7-18.9-30.06-32.99c-7.37-14.08-11.05-30.11-11.05-48.1s3.74-33.96 11.21-47.94zm123.66 19.66c-4.55-8.01-10.46-14.08-17.71-18.2-7.26-4.11-15.01-6.17-23.24-6.17s-15.66 2.06-22.91 6.17c-7.26 4.12-13.16 10.13-17.71 18.04s-6.82 17.39-6.82 28.44 2.27 20.64 6.82 28.76 10.45 14.25 17.71 18.36c7.26 4.12 14.89 6.18 22.91 6.18s15.98-2.06 23.24-6.18c7.26-4.11 13.16-10.18 17.71-18.2 4.55-8.01 6.83-17.55 6.83-28.6s-2.28-20.58-6.83-28.6z" fill="#fff"/></g></g></svg>