<svg id="Layer_2" viewBox="0 0 520 520" xmlns="http://www.w3.org/2000/svg" data-name="Layer 2"><g id="Lowercase_Alphabet" data-name="Lowercase Alphabet"><g><g><path d="m516.94 41.43c-.16-22.89-18.51-41.43-40.99-41.43h-417.07c-8.31 0-16.03 2.54-22.44 6.89l-18.47 12.54c6.41-4.35 14.13-6.89 22.44-6.89h417.06c22.48 0 40.83 18.54 40.99 41.43l3.06 424.6c.1 14.43-7.04 27.13-17.97 34.54l18.47-12.54c10.93-7.42 18.07-20.12 17.97-34.54l-3.06-424.6z" fill="#ce1b1b"/><path d="m457.48 12.54c22.48 0 40.83 18.54 40.99 41.43l3.06 424.6c.16 22.89-17.92 41.43-40.4 41.43h-417.06c-22.48 0-40.85-18.54-41.01-41.43l-3.06-424.6c-.16-22.89 17.93-41.43 40.41-41.43h417.06z" fill="#f92626"/><path d="m440.18 495.49h-382.97c-17.93 0-32.51-14.8-32.51-33v-388.69c0-18.2 14.58-33 32.51-33h382.97c17.93 0 32.51 14.8 32.51 33v388.69c0 18.19-14.58 33-32.51 33zm-382.97-443.9c-12.07 0-21.88 9.96-21.88 22.21v388.69c0 12.25 9.82 22.21 21.88 22.21h382.97c12.07 0 21.89-9.96 21.89-22.21v-388.69c0-12.25-9.82-22.21-21.89-22.21z" fill="#ce1b1b"/></g><path d="m210.25 362.99c-11.7-5.31-20.96-12.51-27.79-21.61s-10.56-19.18-11.21-30.23h45.83c.86 6.94 4.28 12.67 10.24 17.23 5.96 4.55 13.38 6.82 22.26 6.82s15.44-1.73 20.31-5.2c4.88-3.46 7.31-7.91 7.31-13.33 0-5.85-2.98-10.24-8.94-13.16s-15.44-6.12-28.44-9.59c-13.44-3.25-24.43-6.61-32.99-10.07s-15.92-8.78-22.1-15.93-9.26-16.79-9.26-28.92c0-9.96 2.87-19.06 8.61-27.3 5.74-8.23 13.97-14.73 24.7-19.5 10.72-4.76 23.34-7.15 37.86-7.15 21.45 0 38.56 5.36 51.35 16.09 12.78 10.73 19.83 25.19 21.12 43.39h-43.55c-.65-7.15-3.63-12.84-8.94-17.06-5.31-4.23-12.41-6.34-21.29-6.34-8.24 0-14.57 1.52-19.01 4.55-4.44 3.04-6.66 7.26-6.66 12.68 0 6.07 3.03 10.67 9.1 13.81 6.06 3.14 15.49 6.34 28.28 9.59 13 3.25 23.72 6.61 32.17 10.07 8.45 3.47 15.76 8.83 21.94 16.09 6.17 7.26 9.37 16.85 9.59 28.76 0 10.4-2.87 19.72-8.61 27.95-5.74 8.24-13.97 14.68-24.7 19.34-10.72 4.66-23.24 6.99-37.54 6.99s-27.95-2.66-39.65-7.96z" fill="#fff"/></g></g></svg>