<svg id="Layer_2" viewBox="0 0 520 520" xmlns="http://www.w3.org/2000/svg" data-name="Layer 2"><g id="Uppercase_Alphabet" data-name="Uppercase Alphabet"><g><g><path d="m516.94 41.43c-.16-22.89-18.51-41.43-40.99-41.43h-417.07c-8.31 0-16.03 2.54-22.44 6.89l-18.47 12.54c6.41-4.35 14.13-6.89 22.44-6.89h417.06c22.48 0 40.83 18.54 40.99 41.43l3.06 424.6c.1 14.43-7.04 27.13-17.97 34.54l18.47-12.54c10.93-7.42 18.07-20.12 17.97-34.54l-3.06-424.6z" fill="#ce1b1b"/><path d="m457.48 12.54c22.48 0 40.83 18.54 40.99 41.43l3.06 424.6c.16 22.89-17.92 41.43-40.4 41.43h-417.06c-22.48 0-40.85-18.54-41.01-41.43l-3.06-424.6c-.16-22.89 17.93-41.43 40.41-41.43h417.06z" fill="#f92626"/><path d="m440.18 495.49h-382.97c-17.93 0-32.51-14.8-32.51-33v-388.69c0-18.2 14.58-33 32.51-33h382.97c17.93 0 32.51 14.8 32.51 33v388.69c0 18.19-14.58 33-32.51 33zm-382.97-443.9c-12.07 0-21.88 9.96-21.88 22.21v388.69c0 12.25 9.82 22.21 21.88 22.21h382.97c12.07 0 21.89-9.96 21.89-22.21v-388.69c0-12.25-9.82-22.21-21.89-22.21z" fill="#ce1b1b"/></g><path d="m319.94 299.25c8.23 10.4 12.35 22.32 12.35 35.75 0 12.14-2.98 22.81-8.94 32.01-5.96 9.21-14.57 16.41-25.84 21.61s-24.59 7.8-39.98 7.8h-97.83v-226.85h93.6c15.38 0 28.65 2.49 39.81 7.48s19.61 11.92 25.35 20.8c5.74 8.89 8.61 18.96 8.61 30.23 0 13.22-3.52 24.27-10.56 33.15-7.04 8.89-16.41 15.17-28.11 18.85 12.78 2.39 23.29 8.77 31.52 19.18zm-114.73-36.07h41.6c10.83 0 19.18-2.44 25.02-7.31 5.85-4.88 8.78-11.86 8.78-20.96s-2.93-16.14-8.78-21.12-14.19-7.48-25.02-7.48h-41.6v56.88zm71.66 88.39c6.18-5.2 9.26-12.56 9.26-22.1s-3.25-17.39-9.75-22.91c-6.5-5.53-15.27-8.29-26.33-8.29h-44.85v61.1h45.83c11.05 0 19.66-2.6 25.84-7.8z" fill="#fff"/></g></g></svg>