<svg id="Layer_2" viewBox="0 0 520 520" xmlns="http://www.w3.org/2000/svg" data-name="Layer 2"><g id="Uppercase_Alphabet" data-name="Uppercase Alphabet"><g><g><path d="m516.94 41.43c-.16-22.89-18.51-41.43-40.99-41.43h-417.07c-8.31 0-16.03 2.54-22.44 6.89l-18.47 12.54c6.41-4.35 14.13-6.89 22.44-6.89h417.06c22.48 0 40.83 18.54 40.99 41.43l3.06 424.6c.1 14.43-7.04 27.13-17.97 34.54l18.47-12.54c10.93-7.42 18.07-20.12 17.97-34.54l-3.06-424.6z" fill="#eab815"/><path d="m457.48 12.54c22.48 0 40.83 18.54 40.99 41.43l3.06 424.6c.16 22.89-17.92 41.43-40.4 41.43h-417.06c-22.48 0-40.85-18.54-41.01-41.43l-3.06-424.6c-.16-22.89 17.93-41.43 40.41-41.43h417.06z" fill="#ffc610"/><path d="m440.18 495.49h-382.97c-17.93 0-32.51-14.8-32.51-33v-388.69c0-18.2 14.58-33 32.51-33h382.97c17.93 0 32.51 14.8 32.51 33v388.69c0 18.19-14.58 33-32.51 33zm-382.97-443.9c-12.07 0-21.88 9.96-21.88 22.21v388.69c0 12.25 9.82 22.21 21.88 22.21h382.97c12.07 0 21.89-9.96 21.89-22.21v-388.69c0-12.25-9.82-22.21-21.89-22.21z" fill="#eab815"/></g><path d="m150.29 223.2c10.08-17.66 23.83-31.41 41.28-41.28 17.44-9.86 36.99-14.79 58.66-14.79 25.35 0 47.56 6.5 66.62 19.5s32.39 30.99 39.98 53.95h-52.32c-5.2-10.83-12.51-18.96-21.94-24.38-9.43-5.41-20.31-8.12-32.66-8.12-13.22 0-24.97 3.09-35.26 9.26s-18.31 14.9-24.05 26.16c-5.74 11.27-8.61 24.49-8.61 39.65s2.87 28.11 8.61 39.49 13.76 20.15 24.05 26.33c10.29 6.17 22.04 9.26 35.26 9.26 12.35 0 23.24-2.76 32.66-8.29s16.74-13.7 21.94-24.54h52.32c-7.59 23.19-20.86 41.22-39.81 54.11-18.96 12.89-41.22 19.34-66.79 19.34-21.67 0-41.22-4.93-58.66-14.79s-31.2-23.56-41.28-41.11c-10.07-17.55-15.11-37.48-15.11-59.8s5.04-42.3 15.11-59.96z" fill="#fff"/></g></g></svg>