<svg id="Layer_2" viewBox="0 0 520 520" xmlns="http://www.w3.org/2000/svg" data-name="Layer 2"><g id="Uppercase_Alphabet" data-name="Uppercase Alphabet"><g><g><path d="m516.94 41.43c-.16-22.89-18.51-41.43-40.99-41.43h-417.07c-8.31 0-16.03 2.54-22.44 6.89l-18.47 12.54c6.41-4.35 14.13-6.89 22.44-6.89h417.06c22.48 0 40.83 18.54 40.99 41.43l3.06 424.6c.1 14.43-7.04 27.13-17.97 34.54l18.47-12.54c10.93-7.42 18.07-20.12 17.97-34.54l-3.06-424.6z" fill="#eab815"/><path d="m457.48 12.54c22.48 0 40.83 18.54 40.99 41.43l3.06 424.6c.16 22.89-17.92 41.43-40.4 41.43h-417.06c-22.48 0-40.85-18.54-41.01-41.43l-3.06-424.6c-.16-22.89 17.93-41.43 40.41-41.43h417.06z" fill="#ffc610"/><path d="m440.18 495.49h-382.97c-17.93 0-32.51-14.8-32.51-33v-388.69c0-18.2 14.58-33 32.51-33h382.97c17.93 0 32.51 14.8 32.51 33v388.69c0 18.19-14.58 33-32.51 33zm-382.97-443.9c-12.07 0-21.88 9.96-21.88 22.21v388.69c0 12.25 9.82 22.21 21.88 22.21h382.97c12.07 0 21.89-9.96 21.89-22.21v-388.69c0-12.25-9.82-22.21-21.89-22.21z" fill="#eab815"/></g><path d="m301.57 238.31c-5.2-9.53-12.35-16.79-21.45-21.77s-19.72-7.48-31.85-7.48c-13.44 0-25.35 3.04-35.75 9.1-10.4 6.07-18.53 14.74-24.38 26-5.85 11.27-8.78 24.27-8.78 39s2.98 28.39 8.94 39.65c5.96 11.27 14.24 19.94 24.86 26 10.61 6.07 22.96 9.1 37.05 9.1 17.33 0 31.52-4.6 42.58-13.81 11.05-9.21 18.31-22.04 21.77-38.51h-78v-34.78h122.85v39.65c-3.04 15.82-9.54 30.44-19.5 43.88-9.97 13.44-22.81 24.21-38.51 32.34-15.71 8.12-33.31 12.19-52.81 12.19-21.89 0-41.66-4.93-59.31-14.79-17.66-9.86-31.52-23.56-41.6-41.11-10.07-17.55-15.11-37.48-15.11-59.8s5.04-42.3 15.11-59.96c10.08-17.66 23.94-31.41 41.6-41.27s37.32-14.79 58.99-14.79c25.56 0 47.77 6.23 66.62 18.69s31.85 29.96 39 52.49h-52.33z" fill="#fff"/></g></g></svg>