<svg id="Layer_2" viewBox="0 0 520 520" xmlns="http://www.w3.org/2000/svg" data-name="Layer 2"><g id="Uppercase_Alphabet" data-name="Uppercase Alphabet"><g><g><path d="m516.94 41.43c-.16-22.89-18.51-41.43-40.99-41.43h-417.07c-8.31 0-16.03 2.54-22.44 6.89l-18.47 12.54c6.41-4.35 14.13-6.89 22.44-6.89h417.06c22.48 0 40.83 18.54 40.99 41.43l3.06 424.6c.1 14.43-7.04 27.13-17.97 34.54l18.47-12.54c10.93-7.42 18.07-20.12 17.97-34.54l-3.06-424.6z" fill="#c90d70"/><path d="m457.48 12.54c22.48 0 40.83 18.54 40.99 41.43l3.06 424.6c.16 22.89-17.92 41.43-40.4 41.43h-417.06c-22.48 0-40.85-18.54-41.01-41.43l-3.06-424.6c-.16-22.89 17.93-41.43 40.41-41.43h417.06z" fill="#f7289f"/><path d="m440.18 495.49h-382.97c-17.93 0-32.51-14.8-32.51-33v-388.69c0-18.2 14.58-33 32.51-33h382.97c17.93 0 32.51 14.8 32.51 33v388.69c0 18.19-14.58 33-32.51 33zm-382.97-443.9c-12.07 0-21.88 9.96-21.88 22.21v388.69c0 12.25 9.82 22.21 21.88 22.21h382.97c12.07 0 21.89-9.96 21.89-22.21v-388.69c0-12.25-9.82-22.21-21.89-22.21z" fill="#c90d70"/></g><path d="m307.75 418.04-34.45-41.27c-9.54 2.38-19.29 3.57-29.25 3.57-21.24 0-40.74-4.98-58.5-14.95-17.77-9.96-31.85-23.78-42.25-41.44s-15.6-37.64-15.6-59.96 5.2-41.98 15.6-59.64 24.48-31.47 42.25-41.44c17.76-9.96 37.26-14.95 58.5-14.95s41 4.99 58.66 14.95c17.66 9.97 31.63 23.78 41.92 41.44s15.44 37.54 15.44 59.64c0 20.15-4.28 38.51-12.84 55.09-8.56 16.57-20.21 30.06-34.94 40.46l52 58.5h-56.55zm-124.47-114.08c5.85 11.49 14.03 20.31 24.54 26.49 10.51 6.17 22.59 9.26 36.24 9.26s25.67-3.09 36.08-9.26c10.4-6.18 18.53-15 24.38-26.49 5.85-11.48 8.78-24.81 8.78-39.98s-2.93-28.44-8.78-39.81-13.97-20.09-24.38-26.16c-10.4-6.06-22.42-9.1-36.08-9.1s-25.73 3.04-36.24 9.1c-10.51 6.07-18.69 14.79-24.54 26.16-5.85 11.38-8.78 24.65-8.78 39.81s2.92 28.49 8.78 39.98z" fill="#fff"/></g></g></svg>