<svg id="Layer_2" viewBox="0 0 520 520" xmlns="http://www.w3.org/2000/svg" data-name="Layer 2"><g id="Uppercase_Alphabet" data-name="Uppercase Alphabet"><g><g><path d="m516.94 41.43c-.16-22.89-18.51-41.43-40.99-41.43h-417.07c-8.31 0-16.03 2.54-22.44 6.89l-18.47 12.54c6.41-4.35 14.13-6.89 22.44-6.89h417.06c22.48 0 40.83 18.54 40.99 41.43l3.06 424.6c.1 14.43-7.04 27.13-17.97 34.54l18.47-12.54c10.93-7.42 18.07-20.12 17.97-34.54l-3.06-424.6z" fill="#651dcc"/><path d="m457.48 12.54c22.48 0 40.83 18.54 40.99 41.43l3.06 424.6c.16 22.89-17.92 41.43-40.4 41.43h-417.06c-22.48 0-40.85-18.54-41.01-41.43l-3.06-424.6c-.16-22.89 17.93-41.43 40.41-41.43h417.06z" fill="#288bf7"/><path d="m440.18 495.49h-382.97c-17.93 0-32.51-14.8-32.51-33v-388.69c0-18.2 14.58-33 32.51-33h382.97c17.93 0 32.51 14.8 32.51 33v388.69c0 18.19-14.58 33-32.51 33zm-382.97-443.9c-12.07 0-21.88 9.96-21.88 22.21v388.69c0 12.25 9.82 22.21 21.88 22.21h382.97c12.07 0 21.89-9.96 21.89-22.21v-388.69c0-12.25-9.82-22.21-21.89-22.21z" fill="#651dcc"/></g><path d="m278.17 396.43-50.05-88.4h-21.45v88.4h-45.5v-226.85h85.15c17.55 0 32.5 3.09 44.85 9.26s21.61 14.52 27.79 25.02c6.18 10.51 9.26 22.26 9.26 35.26 0 14.95-4.34 28.44-13 40.46-8.67 12.02-21.56 20.31-38.67 24.86l54.28 91.98h-52.65zm-71.5-122.53h38.03c12.35 0 21.56-2.98 27.62-8.94s9.1-14.24 9.1-24.86-3.04-18.47-9.1-24.21c-6.07-5.74-15.28-8.61-27.62-8.61h-38.03z" fill="#fff"/></g></g></svg>