<svg id="Layer_2" viewBox="0 0 520 520" xmlns="http://www.w3.org/2000/svg" data-name="Layer 2"><g id="Uppercase_Alphabet" data-name="Uppercase Alphabet"><g><g><path d="m516.94 41.43c-.16-22.89-18.51-41.43-40.99-41.43h-417.07c-8.31 0-16.03 2.54-22.44 6.89l-18.47 12.54c6.41-4.35 14.13-6.89 22.44-6.89h417.06c22.48 0 40.83 18.54 40.99 41.43l3.06 424.6c.1 14.43-7.04 27.13-17.97 34.54l18.47-12.54c10.93-7.42 18.07-20.12 17.97-34.54l-3.06-424.6z" fill="#ce1b1b"/><path d="m457.48 12.54c22.48 0 40.83 18.54 40.99 41.43l3.06 424.6c.16 22.89-17.92 41.43-40.4 41.43h-417.06c-22.48 0-40.85-18.54-41.01-41.43l-3.06-424.6c-.16-22.89 17.93-41.43 40.41-41.43h417.06z" fill="#f92626"/><path d="m440.18 495.49h-382.97c-17.93 0-32.51-14.8-32.51-33v-388.69c0-18.2 14.58-33 32.51-33h382.97c17.93 0 32.51 14.8 32.51 33v388.69c0 18.19-14.58 33-32.51 33zm-382.97-443.9c-12.07 0-21.88 9.96-21.88 22.21v388.69c0 12.25 9.82 22.21 21.88 22.21h382.97c12.07 0 21.89-9.96 21.89-22.21v-388.69c0-12.25-9.82-22.21-21.89-22.21z" fill="#ce1b1b"/></g><path d="m205.21 391.06c-12.67-5.41-22.7-13.21-30.06-23.4-7.37-10.18-11.16-22.21-11.38-36.08h48.75c.65 9.32 3.95 16.69 9.91 22.1 5.96 5.42 14.14 8.12 24.54 8.12s18.96-2.54 25.02-7.64c6.06-5.09 9.1-11.75 9.1-19.99 0-6.71-2.06-12.24-6.17-16.57-4.12-4.33-9.26-7.74-15.44-10.24-6.18-2.49-14.68-5.25-25.51-8.29-14.74-4.33-26.71-8.61-35.91-12.84-9.21-4.23-17.12-10.61-23.72-19.17-6.61-8.56-9.91-19.99-9.91-34.29 0-13.43 3.36-25.13 10.07-35.1 6.71-9.96 16.14-17.6 28.28-22.91 12.13-5.31 26-7.96 41.6-7.96 23.4 0 42.41 5.69 57.04 17.06s22.69 27.25 24.21 47.61h-50.05c-.44-7.8-3.74-14.24-9.91-19.34-6.17-5.09-14.36-7.64-24.54-7.64-8.89 0-15.98 2.27-21.29 6.82s-7.96 11.16-7.96 19.83c0 6.07 2 11.11 6.01 15.11 4.01 4.01 8.99 7.26 14.95 9.75s14.35 5.36 25.19 8.61c14.73 4.34 26.76 8.67 36.08 13 9.31 4.34 17.33 10.84 24.05 19.5 6.71 8.67 10.08 20.04 10.08 34.12 0 12.14-3.14 23.4-9.42 33.8-6.29 10.4-15.49 18.69-27.62 24.86-12.14 6.17-26.54 9.26-43.23 9.26-15.82 0-30.06-2.71-42.74-8.12z" fill="#fff"/></g></g></svg>