<svg id="Layer_2" viewBox="0 0 520 520" xmlns="http://www.w3.org/2000/svg" data-name="Layer 2"><g id="Uppercase_Alphabet" data-name="Uppercase Alphabet"><g><g><path d="m516.94 41.43c-.16-22.89-18.51-41.43-40.99-41.43h-417.07c-8.31 0-16.03 2.54-22.44 6.89l-18.47 12.54c6.41-4.35 14.13-6.89 22.44-6.89h417.06c22.48 0 40.83 18.54 40.99 41.43l3.06 424.6c.1 14.43-7.04 27.13-17.97 34.54l18.47-12.54c10.93-7.42 18.07-20.12 17.97-34.54l-3.06-424.6z" fill="#c90d70"/><path d="m457.48 12.54c22.48 0 40.83 18.54 40.99 41.43l3.06 424.6c.16 22.89-17.92 41.43-40.4 41.43h-417.06c-22.48 0-40.85-18.54-41.01-41.43l-3.06-424.6c-.16-22.89 17.93-41.43 40.41-41.43h417.06z" fill="#f7289f"/><path d="m440.18 495.49h-382.97c-17.93 0-32.51-14.8-32.51-33v-388.69c0-18.2 14.58-33 32.51-33h382.97c17.93 0 32.51 14.8 32.51 33v388.69c0 18.19-14.58 33-32.51 33zm-382.97-443.9c-12.07 0-21.88 9.96-21.88 22.21v388.69c0 12.25 9.82 22.21 21.88 22.21h382.97c12.07 0 21.89-9.96 21.89-22.21v-388.69c0-12.25-9.82-22.21-21.89-22.21z" fill="#c90d70"/></g><path d="m199.85 168.44v140.4c0 15.39 4.01 27.14 12.02 35.26s19.28 12.19 33.8 12.19 26.11-4.06 34.12-12.19c8.01-8.12 12.03-19.88 12.03-35.26v-140.4h45.83v140.08c0 19.29-4.17 35.59-12.51 48.91-8.34 13.33-19.5 23.35-33.48 30.06-13.97 6.72-29.52 10.08-46.64 10.08s-32.23-3.36-45.99-10.08c-13.76-6.71-24.65-16.74-32.66-30.06-8.02-13.33-12.02-29.63-12.02-48.91v-140.08z" fill="#fff"/></g></g></svg>